Coordinates

Units are S.I. units (second, meters, Newtons, ...)
If the header above contains a line with 'inDegrees', this indicates whether rotational values are in degrees (yes) or radians (no).

inDegrees=no
nColumns=21
nRows=25
DataType=double
version=3
OpenSimVersion=4.6-2026-03-31-d6972f9e6
endheader
time	/jointset/ground_pelvis/pelvis_tilt/value	/jointset/ground_pelvis/pelvis_list/value	/jointset/ground_pelvis/pelvis_rotation/value	/jointset/ground_pelvis/pelvis_tx/value	/jointset/ground_pelvis/pelvis_ty/value	/jointset/ground_pelvis/pelvis_tz/value	/jointset/hip_r/hip_flexion_r/value	/jointset/hip_r/hip_adduction_r/value	/jointset/hip_r/hip_rotation_r/value	/jointset/walker_knee_r/knee_angle_r/value	/jointset/patellofemoral_r/knee_angle_r_beta/value	/jointset/ankle_r/ankle_angle_r/value	/jointset/subtalar_r/subtalar_angle_r/value	/jointset/hip_l/hip_flexion_l/value	/jointset/hip_l/hip_adduction_l/value	/jointset/hip_l/hip_rotation_l/value	/jointset/walker_knee_l/knee_angle_l/value	/jointset/patellofemoral_l/knee_angle_l_beta/value	/jointset/ankle_l/ankle_angle_l/value	/jointset/subtalar_l/subtalar_angle_l/value
144.996	-0.1825460833357445	-0.1793682728004611	-0.01638635812307715	1.125436896041128	0.9360592533753775	-0.3288050129526791	0.5941589731530597	0.251453306734224	0.04662127086793914	0.5860787626159314	0.5860787624093817	0.1434686988249624	-0.3846898316476218	-0.002760663191175153	-0.278070179848447	-0.1468357955362303	1.334765069189753	1.334765066715014	-0.4231040676514493	-0.4482946156879904
145	-0.1836152125271531	-0.1858010780332267	-0.02292386362842034	1.124160991231102	0.932480052383501	-0.328310152554064	0.5997475431336291	0.2621526007327188	0.04456128344035434	0.6182811372505287	0.6182811369142965	0.1553032597878812	-0.3870170865825275	0.01428439462394471	-0.2919968899412463	-0.1503706150258048	1.368440948368266	1.368440945858059	-0.4166784518176346	-0.4649660139130599
145.004	-0.1850387324507204	-0.1920193847984024	-0.02948621098572777	1.12282384075218	0.9290176835473271	-0.3278435152128004	0.605027661745286	0.2724793003485583	0.04281249479678578	0.6494569180184743	0.6494569175630982	0.168293089726886	-0.3883707111190641	0.03241633401381572	-0.3054383737127178	-0.1525872711579641	1.401339706270343	1.401339703740146	-0.4102621314558673	-0.480485605166588
145.008	-0.1867224121152609	-0.1979684884366254	-0.03598600257882679	1.121437408641607	0.9257018312045592	-0.3274120980763112	0.6097419966955847	0.2823237082698639	0.04131314208596747	0.6793023348949476	0.6793023343347373	0.1823584489406269	-0.3886007245280972	0.05155214159749757	-0.3182783234811155	-0.1534271580086089	1.433314796580839	1.433314794052075	-0.4038505889455225	-0.4947012625843515
145.012	-0.1885679838090871	-0.2035915367069192	-0.04233672089992113	1.120014765924745	0.9225603744185331	-0.3270220351794755	0.6136398949069324	0.2915762461591075	0.04000547158053071	0.7075335405824866	0.7075335399332817	0.1974008287713412	-0.3875853779603637	0.07159461939074389	-0.330400859438103	-0.1528615784150562	1.464218373421803	1.464218370922185	-0.3974218321220489	-0.5074802627818009
145.016	-0.190476766918097	-0.2088304631129833	-0.04845423621430366	1.118569742429459	0.9196188226085411	-0.3266784620627228	0.6164856378517215	0.3001296178037387	0.03883714556429598	0.7338937115554351	0.7338937108324554	0.2133056955747692	-0.3852351682908097	0.09243525224580117	-0.3416925213516632	-0.1508913075947568	1.493903946682677	1.493903944245621	-0.3909379505826302	-0.518710929788722
145.02	-0.1923535616910645	-0.2136272682554352	-0.05425830300651362	1.117116559187397	0.9168998180460396	-0.3263854143396282	0.6180663270290154	0.3078812781871679	0.03776211685961346	0.7581590380702607	0.7581590372864148	0.2299451925221756	-0.3814951891160314	0.1139577139023029	-0.3520445656913933	-0.1475452147858914	1.522229061405785	1.522229059068999	-0.3843474532253089	-0.5283037621618648
145.024	-0.1941105460052857	-0.21792561975819	-0.05967403142512618	1.115669458226782	0.9144227318752365	-0.3261457606009426	0.61819892743798	0.3147361612378353	0.03674107622441723	0.780143287152634	0.7801432863177262	0.247180680324276	-0.3763459445841266	0.1360417212882237	-0.361355509361646	-0.1428780748642199	1.549057869738079	1.549057867541581	-0.3775882883368653	-0.5361921156121712
145.028	-0.1956708190591787	-0.2216726914880595	-0.06463329678407639	1.114242347309739	0.9122033820162744	-0.3259611708245282	0.616735959614646	0.3206095652447202	0.03574160659224809	0.7997007465975574	0.7997007457185847	0.2648650236857523	-0.3698028735227782	0.1585668257217007	-0.369533797908446	-0.1369677359191158	1.574263442746919	1.574263440730745	-0.3705914085088292	-0.542332525747231
145.032	-0.1969713597346644	-0.2248211159284447	-0.06907604291845551	1.112848473049226	0.9102538855304997	-0.3258321216218164	0.6135695361786391	0.3254300304293902	0.03473815818682516	0.8167274908044125	0.8167274898866449	0.2828445820253536	-0.361914804044587	0.1814158762170209	-0.3765004275281233	-0.1299117951423089	1.597729714379381	1.597729712581268	-0.3632847289524205	-0.5467047707070004
145.036	-0.1979652833598332	-0.2273309024523314	-0.07295143898685182	1.111500132361498	0.9085826433697164	-0.3257579382847826	0.6086336287491856	0.3291420169147361	0.03371194562826845	0.8311610221059503	0.8311610211541581	0.3009609072964641	-0.3527615259759941	0.2044780181578506	-0.38219133764878	-0.1218239349476143	1.619352995431299	1.619352993884549	-0.3555973208022752	-0.5493117804610573
145.04	-0.1986233180267032	-0.2291711711182496	-0.07621885205025686	1.110208431010915	0.9071944484961869	-0.3257368718052484	0.601904545156249	0.3317081956921518	0.03265086506648664	0.842978431426108	0.8429784304453998	0.3190521720725122	-0.342450686555396	0.2276511154372828	-0.386559397645175	-0.1128300851690841	1.63904301778493	1.639043016516599	-0.3474636751103963	-0.5501794929356465
145.044	-0.1989344399923697	-0.2303215604942382	-0.07884860271907369	1.108983097095886	0.9060907047616422	-0.3257662067939648	0.5933996596191475	0.3331111870021478	0.03154951982177909	0.8521932872846124	0.8521932862807173	0.3369543520191417	-0.33111425428531	0.2508434846794823	-0.3895758326615475	-0.1030645894427593	1.656723484859439	1.656723483888833	-0.338827874779968	-0.5493567408096303
145.048	-0.1989056449142284	-0.2307731884077946	-0.08082247328732495	1.107832354766635	0.9052697398515595	-0.3258423946089847	0.5831745145325455	0.3333546073075338	0.03040940742362423	0.8588515045316137	0.8588515035107293	0.3545021979492796	-0.3189047822462596	0.2739748627127607	-0.3912309684898582	-0.09266654478877098	1.67233212862862	1.672332127966169	-0.3296475054218802	-0.546915209358686
145.052	-0.1985609145068593	-0.2305290850756584	-0.08213392198194133	1.106762858995913	0.904727187697691	-0.3259612078504558	0.5713185380356697	0.3324633045450578	0.02923921573762197	0.8630264736948881	0.8630264726633039	0.3715301047000736	-0.3059915267527421	0.2969766389782874	-0.3915342253309781	-0.08177641613620233	1.685820318745722	1.685820318392346	-0.3198970966972119	-0.5429494015982705
145.056	-0.1979395298731346	-0.2296040841555482	-0.08278793849730012	1.105779687904971	0.9044564079268029	-0.3261179157166676	0.5579497494208103	0.330482698007392	0.02805504506832526	0.8648137459046381	0.864813744868321	0.3878730592432443	-0.2925562631209454	0.319791514950261	-0.3905133633315435	-0.07053293244696629	1.697152317112844	1.697152317059949	-0.3095708583555278	-0.5375764346695299
145.06	-0.1970938812828304	-0.2280242094553685	-0.08280049856046488	1.104886387177489	0.9044489132349631	-0.3263074778972784	0.5432088238643569	0.3274772204407655	0.02688037480134418	0.8643255601619678	0.8643255591262365	0.4033677787554696	-0.2787887118950947	0.3423727390358213	-0.3882130489002928	-0.05907025708981553	1.706304273577402	1.706304273807487	-0.2986845375491961	-0.5309354889698783
145.064	-0.1960868527703526	-0.2258255863412314	-0.08219764690992408	1.104085061369443	0.9046947884746228	-0.3265247470636988	0.5272527794726469	0.3235279413399247	0.02574575025246816	0.8616854718008035	0.8616854707701932	0.4178539708286731	-0.2648818176672323	0.3646829265437028	-0.3846928217538607	-0.0475155137316005	1.713263013017693	1.713263013505474	-0.2872763403989614	-0.5231868331318109
145.068	-0.19498884561967	-0.2230528741889684	-0.08101430395336692	1.103376507570595	0.9051830936665919	-0.3267646638598229	0.5102484905029818	0.3187294890699991	0.02468829169967536	0.8570232935523699	0.8570232925308114	0.4311755538300309	-0.2510273462278006	0.3866924121555795	-0.3800245279775674	-0.03598682421663883	1.718024628437971	1.718024629151797	-0.2754069406792576	-0.5145104328399622
145.072	-0.1938745487396937	-0.2197572484571878	-0.07929287784633095	1.102760385162948	0.9059022422628447	-0.3270224322027553	0.4923662574072975	0.3131864009557331	0.02375104741128565	0.8504705172163942	0.8504705162078586	0.4431817464850257	-0.2374121027728191	0.4083771618697254	-0.3742893118746706	-0.02459194758620488	1.72059291816815	1.720592919071375	-0.2631585736501086	-0.5051040697834045
145.076	-0.1928195930673683	-0.2159940558390948	-0.07708167892903466	1.102235410803067	0.9068403410679589	-0.327293676841949	0.4737737116043651	0.3070090279458262	0.02298197668220366	0.8421563863225231	0.842156385332123	0.4537281200316451	-0.2242145345778949	0.4297163964551859	-0.3675743114174552	-0.01342741192202247	1.720977776257288	1.720977777309341	-0.2506330625369866	-0.4951806189612997
145.08	-0.1918972442937319	-0.2118203194507194	-0.0744331077519817	1.101799564367286	0.9079854762868421	-0.3275745925529628	0.4546303494773782	0.3003091389210863	0.02243228237007687	0.8322047943273642	0.832204793362513	0.4626777829559587	-0.2116011870288051	0.450690147204774	-0.3599692276104233	-0.00257792716045247	1.71919367893066	1.719193680087823	-0.2379485880442774	-0.4849640541570002
145.084	-0.191175315280223	-0.2072922390280861	-0.07140169097888512	1.101450292522504	0.9093259356589882	-0.3278620819989059	0.4350829475635363	0.2931954513443486	0.02215409299033196	0.8207320974247259	0.8207320964956902	0.4699026627506673	-0.1997229844981662	0.4712769478659181	-0.3515629500931904	0.007883996773352452	1.715258349952757	1.715258351168904	-0.2252353398587843	-0.4746842186258797
145.088	-0.1907134899983222	-0.2024627835581936	-0.06804214162594129	1.101184699643562	0.9108503652379905	-0.3281538638909298	0.4152620302954553	0.2857693873288088	0.0221977926142609	0.807845799702991	0.8078457988223791	0.4752846220696225	-0.1887119543594302	0.4914518215559464	-0.3424404292873166	0.01789813512234091	1.70919160634895	1.709191607576564	-0.2126305688328344	-0.4645709241154524
145.092	-0.1905612030364246	-0.1973794730461253	-0.06440758608939154	1.100999718519539	0.9125478647103988	-0.3284485365623763	0.3952794749833561	0.278121321729274	0.02260926758515717	0.7936440123175034	0.7936440114988166	0.4787162200383112	-0.1786789120237046	0.5111846863414973	-0.3326799584579796	0.02741628815951261	1.701014371796647	1.7010143729883	-0.2002735254374376	-0.4548478932020144
